# xmcd
#
# Track frame offsets:
#	150
#	10378
#	26693
#	27620
#	46210
#	56013
#	66730
#	71905
#	72810
#	82490
#	94450
#	99623
#	105873
#	115823
#	119268
#	140323
#	148108
#	154443
#	164443
#	169685
#	170505
#	177738
#	182735
#	198778
#	212093
#
# Disc length: 3046 seconds
#
# Revision: 1
# Processed by: cddbd v1.5.1PL0 Copyright (c) Steve Scherf et al.
# Submitted via: CDex 1.50Beta5
#
DISCID=800be419
DTITLE=サウンドトラック - OVA ジャングルはいつもハレのちグゥ デラックス スペシャルCD ジャングル通信デラックス
DYEAR=1900
DGENRE=
TTITLE0=謁見の間
TTITLE1=LOVE☆トロピカ〜ナ デラックス(ジャングル通信デラックス・スペシャルver.)
TTITLE2=ガンガンニュース1
TTITLE3=シンデレラ
TTITLE4=クライブ夜の診察室1
TTITLE5=YUMI(BGM)
TTITLE6=ジャングルクッキング
TTITLE7=ガンガンニュース2
TTITLE8=クライブ夜の診察室2
TTITLE9=マリィたんとデェト
TTITLE10=hare yasashii(BGM)
TTITLE11=もっかいデェト
TTITLE12=クライブ夜の診察室3
TTITLE13=静寂漫才
TTITLE14=LOVE☆トロピカーナ TOROPICANA MIX instrumental ver.
TTITLE15=OVA スーパーHAGU DX 第一話 HAGU旅立ちの日
TTITLE16=MANDALIS(BGM)
TTITLE17=電脳おたく商店街
TTITLE18=DAMA Toujyou(BGM)
TTITLE19=ガンガンニュース3
TTITLE20=眠れぬ夜のために…
TTITLE21=uiguru(BGM)
TTITLE22=ファンファン&シャウト
TTITLE23=ボーナストラック1:エピローグ
TTITLE24=ボーナストラック2:LOVE☆トロピカ〜ナ デラックス(チャレンジver.)
EXTD=
EXTT0=
EXTT1=
EXTT2=
EXTT3=
EXTT4=
EXTT5=
EXTT6=
EXTT7=
EXTT8=
EXTT9=
EXTT10=
EXTT11=
EXTT12=
EXTT13=
EXTT14=
EXTT15=
EXTT16=
EXTT17=
EXTT18=
EXTT19=
EXTT20=
EXTT21=
EXTT22=
EXTT23=
EXTT24=
PLAYORDER=
